# xmcd
#
# Track frame offsets: 
#        150
#        14965
#        32200
#        47277
#        64677
#        78345
#        95375
#        110492
#        129080
#        142737
#        161035
#        184405
#        200055
#        217140
#        233660
#        249805
#        266847
#        284000
#
# Disc length: 4057 seconds
#
# Revision: 37
# Processed by: cddbd v1.5.2PL0 Copyright (c) Steve Scherf et al.
# Submitted via: ExactAudioCopyFreeDBPlugin 1.0
#
DISCID=060fd712
DTITLE=I N X S   (in excess) - T H E   G R E A T E S T   H I T S     1
DTITLE=9 9 4
DYEAR=1994
DGENRE=Rock
TTITLE0=Mystify  1987
TTITLE1=Suicide Blonde  1990
TTITLE2=Taste It  1992
TTITLE3=The Strangest Party (These Are The Times)  1994
TTITLE4=Need You Tonight  1987
TTITLE5=Original Sin  1983
TTITLE6=Heaven Sent  1992
TTITLE7=Disappear  1990
TTITLE8=Never Tear Us Apart  1987
TTITLE9=The Gift  1993
TTITLE10=Devil Inside  1987
TTITLE11=Beautiful Girl  1992
TTITLE12=Deliver Me  1994
TTITLE13=New Sensation  1987
TTITLE14=What You Need  1985
TTITLE15=Listen Like Thieves  1985
TTITLE16=Bitter Tears  1990
TTITLE17=Baby Don't Cry  1992
EXTD=YEAR: 1994
EXTT0=
EXTT1=
EXTT2=
EXTT3=
EXTT4=
EXTT5=
EXTT6=
EXTT7=
EXTT8=
EXTT9=
EXTT10=
EXTT11=
EXTT12=
EXTT13=
EXTT14=
EXTT15=
EXTT16=
EXTT17=
PLAYORDER=
